<svg width="14" height="14" viewBox="0 0 14 14" fill="none" xmlns="http://www.w3.org/2000/svg">
<path d="M13.3122 5.9L9.87718 4.215C9.85465 4.2084 9.83414 4.19624 9.81754 4.17964C9.80094 4.16304 9.78878 4.14253 9.78218 4.12L8.08718 0.685C7.87218 0.235 7.43718 0 7.00218 0C6.56718 0 6.13218 0.235 5.91718 0.685L4.21718 4.12C4.211 4.14252 4.19965 4.16329 4.18402 4.18066C4.1684 4.19802 4.14893 4.21149 4.12718 4.22L0.687183 5.91C0.481186 6.01001 0.307493 6.16597 0.18597 6.36006C0.0644469 6.55414 0 6.77851 0 7.0075C0 7.23649 0.0644469 7.46086 0.18597 7.65494C0.307493 7.84903 0.481186 8.00499 0.687183 8.105L4.12718 9.785C4.17718 9.8 4.20218 9.835 4.22218 9.875L5.91718 13.315C6.13218 13.765 6.56718 14 7.01718 14C7.24517 14.0012 7.46878 13.9374 7.66182 13.816C7.85485 13.6947 8.00934 13.5209 8.10718 13.315L9.78718 9.875C9.80218 9.83 9.83718 9.8 9.88218 9.785L13.3172 8.085C13.5218 7.98446 13.6942 7.82857 13.8148 7.63503C13.9353 7.44148 13.9992 7.21802 13.9992 6.99C13.9992 6.76198 13.9353 6.53852 13.8148 6.34497C13.6942 6.15143 13.5218 5.99554 13.3172 5.895L13.3122 5.9ZM10.7472 6.145L9.16218 7.53C8.84219 7.80851 8.62259 8.18447 8.53718 8.6L8.13718 10.67C8.13154 10.7003 8.11753 10.7284 8.09675 10.7511C8.07596 10.7739 8.04922 10.7903 8.01957 10.7986C7.98991 10.807 7.95851 10.8068 7.92893 10.7982C7.89934 10.7896 7.87276 10.7729 7.85218 10.75L6.47218 9.16C6.19164 8.84092 5.81387 8.62304 5.39718 8.54L3.32718 8.135C3.29834 8.12805 3.2719 8.11344 3.25066 8.09273C3.22942 8.07201 3.21415 8.04595 3.20648 8.01729C3.1988 7.98863 3.19899 7.95843 3.20704 7.92986C3.21508 7.9013 3.23068 7.87544 3.25218 7.855L4.83718 6.47C5.15533 6.19075 5.37312 5.81488 5.45718 5.4L5.86218 3.33C5.86846 3.30076 5.88257 3.27377 5.903 3.25192C5.92343 3.23008 5.94942 3.2142 5.97818 3.20598C6.00694 3.19777 6.03739 3.19752 6.06628 3.20527C6.09517 3.21303 6.1214 3.22849 6.14218 3.25L7.54218 4.84C7.82218 5.15 8.19218 5.38 8.61718 5.46L10.6872 5.86C10.8072 5.895 10.8572 6.05 10.7472 6.145Z" fill="url(#paint0_linear_1_9)"/>
<defs>
<linearGradient id="paint0_linear_1_9" x1="-0.00281681" y1="0" x2="13.9472" y2="0" gradientUnits="userSpaceOnUse">
<stop stop-color="#EC0C43"/>
<stop offset="1" stop-color="#FBB03B"/>
</linearGradient>
</defs>
</svg>
